<?xml version="1.0" encoding="utf-8"?>
<!-- Generator: Adobe Illustrator 17.1.0, SVG Export Plug-In . SVG Version: 6.00 Build 0)  -->
<!DOCTYPE svg PUBLIC "-//W3C//DTD SVG 1.1//EN" "http://www.w3.org/Graphics/SVG/1.1/DTD/svg11.dtd">
<svg version="1.1" id="Layer_1" xmlns="http://www.w3.org/2000/svg" xmlns:xlink="http://www.w3.org/1999/xlink" x="0px" y="0px"
	 viewBox="0 0 56.7 56.7" style="enable-background:new 0 0 56.7 56.7;" xml:space="preserve">
<g id="shape">
	<path d="M32.2,46.4c-0.1-0.1-0.2-0.1-0.3-0.2c-0.6,0.9-1.3,0.8-1.9-0.2c-0.5-0.9-0.2-2.5-0.2-3.6c0-2.2,0.1-5-0.5-7.1
		c0,0-0.1,5.1-0.1,5.1c-0.1,0.6,0.3,5.2-0.1,5.3c-0.2,0.1,0.2,3,0.2,3.4c0,0.8-0.1,1.5-0.8,2c-0.5,0.4-1.8,0.4-2.3-0.1
		c-0.5-0.6-0.1-1.6,0-2.3c0.1-0.9,0.1-1.8,0.2-2.7c0-0.3,0.3-2.1,0-2.2c-0.3-0.1-1,0.1-1.3,0.1c0,0.2,0.1,0.2,0.4,0.1
		c-0.3,0-0.8,0.2-1,0.3c-0.1-0.3-0.3-0.8-0.3,0c-0.4-0.6-0.7-0.2-1.4-0.2c0.5-0.3-0.2-0.1-0.4-0.1c0.3,0.2-0.6,0.2-1,0.2
		c0.4-0.2-0.7,0-0.8,0c-0.4-0.3-1.8,0-2.3,0c-0.6,0-1.6,0.2-2.1-0.2c-0.3,0.1-0.6,2.2-0.6,2.6c-0.2,1.4-0.2,3.6-1.2,4.7
		c-0.5,0.5-1.3,0.4-1.9,0.4c-0.3,0-0.7,0.1-1,0c-0.2-0.1-0.1-0.4,0.1-0.4c-0.4-1,0.4-2.6,0.7-3.6c0.4-1.6,0.8-3.4,1.3-5
		c1.1-3.1,2.3-6.4,2.9-9.6c-0.2,0.1-0.7,0.3-0.9-0.1c-0.3-0.6-0.2-0.4-1-0.6c-1-0.1-1.7-0.6-1.7-1.5c0-2.6,0.9-5.1,0.9-7.7
		c-1.4,1.1-2.8,2.6-3.4,4.2c-0.7-0.5-1.4-0.7-2-1.3c-0.8-0.7-1.6-1.3-2.4-1.9c0.1,0.6,0.2,1,0.2,1.6c0,1.1-0.6,1.1-0.9,0.1
		c-0.1-0.2-0.3-1.3-0.7-1.4c-0.7-0.1-1.2-0.6-1.6-1.1c-0.6-0.9-0.5-2.8,1.1-2.4c0.2-0.8,0.4-2.5-0.1-3.1c-0.4-0.4-0.6-0.9-0.4-1.5
		c0.1-0.3,0.4-2,0.7-1.8C4.7,15,4.8,15.9,5,16.3c0.7,0.8,0.9,1.2,0.6,2.3c-0.3,0,0.7,2.4,0.3,2.8c0,0,2.3,2.5,1,2.6
		c1.2,0.9,2.4,1.7,3.3,2.8c0.4-0.7,2.5-5.3,3.8-4.2c0.1-1,0.2-1.9,0.4-2.8c0.1-0.8,0.1-2,0.5-2.7c0.5,0.3-0.3,3.2-0.4,3.8
		c-0.2,2-0.3,4-0.5,6c-0.1,0.6-0.9,4.7-0.4,5c1.1,0.7,1.8,0.2,2.7,0.1c3.3-0.2,6.5,0.2,9.8,0c0.8-0.1,1.5-0.1,2.3-0.4
		c0.5-0.2,0.7-0.2,1.2-0.2c0.7-0.1,1.2,0.1,1.9,0.2c0.9,0.1,1.9-0.1,2.8-0.2c0.6-0.1,0.7-0.2,1.2-0.5c1-0.7,1.1-0.5,1.1-1.7
		c0-1.8,0-3.6,0.1-5.5c0.1-2,0.2-4,0.3-5.9c0-0.3,0.3-2,0-2.2c-0.1,0-0.8,0-0.9,0c-3.9,0.2-7.8,0.3-11.7,0.6
		c-1.6,0.1-3.1,0.3-4.7,0.4c-1.4,0-3.6,0.6-4.9,0.2c0.3-0.6,2.2-0.4,2.7-0.4c0.6-0.1,1.2-0.1,1.8-0.1c0.8-0.1,0.6,0,0.7-0.7
		c0.1-1,0.3-2,0.5-3c0.2-1.1,1.9-1.3,1.9,0c0.4,0,0.5-0.9,1.1-0.8c0.3,0,1.1,1,0.8,1.1c-0.8-1-1.6-0.3-1.7,0.8
		c-0.1,1.1,1.1,2.1,1.8,0.8c0.4,0.3,0,0.9-0.4,1c-0.7,0.3-1.1-0.2-1.5-0.6c0,0.3-0.3,1,0.2,1c0.8-0.1,1.7-0.1,2.6-0.2
		c-0.3-1.5,0-3.2,0-4.7c0-0.4,0.2-2.1-0.1-2.4c-0.3-0.3-1.4,0-1.6,0.4c-0.2-0.5-1-0.9-0.6-1.5c0.4-0.5,2.1-0.8,2.1-1.1
		c0-1.3,0.3-0.9,1.3-1.4c1.2-0.5,0.8,0.7,0.8,1.4c0.4,0.1,1.6-0.6,1.8,0.3c0.2,1.4-0.4,1.6-1.5,1.6c-0.2,0-0.1,0.7-0.1,0.8
		c0,0.5-0.2,0.1-0.4,0.5c-0.1,0.2-0.2,2.1-0.1,2.2c0.4-0.3,0.5-0.4,1-0.3c-0.2,0.5-0.9,0.3-1.1,1.2c-0.1,0.6,0,1.6,0.6,1.9
		c1.8,1,1.1-2.8,1.4-2.7c0.3,0,0.2,0.9,0.4,1c0.4-1.3,0.7-2,2.2-1.7c0.6,0.1,0,3.8-0.4,4.1c0.8,0,6.8-0.6,6.9-0.1
		c-0.8,0.4-0.3,1.1-0.4,2c-0.1,1-0.1,2.1-0.2,3.1c1.1-0.1,1.9,0.9,2.5,1.5c0.4,0.4,0.5,1.1,1,0.7c0.5-0.4,1.1-0.7,1.6-1.1
		c0.4-0.2,0.8-1,1.1-0.6c0.3,0.5-0.1,0.7,0.1,1.2c0.3,0.6,0.7,0.9,1.4,1c-0.3-0.4-1.2-0.9-1-1.5c0.1,0.1,0.1,0.1,0.2,0.2
		C44.3,21,45,20.6,45,20c0.8,0.5,1.9-0.5,0.6-1c-1-0.4-2.3,0.2-2.3,1.4c-0.4-0.7,0.8-1.6,1.3-1.9c-0.9-0.6-1.5-2.1-0.5-3
		c0.9-0.9,3-0.8,4.2-0.8c1.3,0,3.2,0.5,4.2,1.3c0.9,0.8,1.1,2,1.3,3.1c0.2,0.7-0.9,2.1-1.3,2.6c-0.8,0.9-1.9,1.4-3.1,1.6
		c-1.3,0.2-2.8-0.2-3.9,0.1c-1.2,0.3-2-0.6-2.5-1.5c-0.9,0.4-1.6,1.1-2.2,1.9c-0.2-0.4-0.7-0.3-1-0.6c-0.3-0.3-0.6-0.7-0.9-1
		c-0.5-0.5-0.7-1-1.4-0.9c-0.7,0.1-0.5,4.7-0.5,5.5c0,1.1,0.1,2.2,0.1,3.3c0,1.2-1.1,1-1.9,1.3c-0.9,0.4-1.8,0.4-2.8,0.4
		c-0.4,0-1.1,0.2-0.4,0.6c-0.1,0.5-0.8,0.3-1.1,0.3c0.4,2.2,0.7,4.5,0.8,6.8c0.1,1.2,0.2,2.5,0.4,3.7C32.2,44.2,32.7,45.6,32.2,46.4
		C32.1,46.4,32.2,46.3,32.2,46.4z M44.9,18.6c0.6,0.1,0.8,0.2,1.2-0.1c0.2-0.1,0.6-0.1,0.8-0.1c0.8,0.1,1.2,0.7,1,1.5
		c-0.5,1.8-2.8-0.4-3.3,1.2c-0.4,1.6,1.5,2,2.7,2c2.1,0.1,4.8-0.5,5.8-2.6c-0.3-0.2-0.4,0.5-0.7,0.2c1.2-1,1.1-1.8,0.6-3.3
		c-0.5-1.3-1.9-1.9-3.1-2.2c-1.7-0.5-3.5-0.2-5.2,0.2c-0.5,0.2-0.9,0.5-0.9,1.1C43.8,17.6,44.8,17.8,44.9,18.6
		C45.3,18.6,44.9,18.2,44.9,18.6z M21.1,41.7c-0.1-1.3,0.6-2.9,0.8-4.3c0.2-1.4,0.5-2.9,0.6-4.3c-1.2,0-2.3,0.1-3.5,0.2
		c-0.4,0-0.7,2.7-0.8,3.1c-0.2,0.9-0.6,2-0.6,2.9c0,0.4-0.9,2.5-0.7,2.7c0.2,0.2,1.5-0.2,1.8-0.2C19.5,41.7,20.3,41.8,21.1,41.7
		C21.1,41.5,21,41.7,21.1,41.7z M27,41.4c0.3-1.2,0.1-2.7,0.2-4c0-1.5,0.1-2.9,0.2-4.3c-1.2,0-2.4,0-3.5,0c0.2,0.7-0.2,1.5,0,2.2
		c0.2,0.8-0.1,2.5-0.3,3.3c-0.3,0.9-0.5,1.9-0.6,2.9C22.9,41.6,26.6,41.4,27,41.4C27,41.4,26.6,41.4,27,41.4z M4.6,22.9
		c0.1,0,0.3-1.9-1.1-1.2c-1,0.6,0.4,2.3,1.2,2.4C4.7,23.8,4.8,23.3,4.6,22.9C4.6,22.9,4.7,23,4.6,22.9z M6.8,23.9
		c-0.1-0.8-0.3-2.3-1.4-2.3C4.7,21.6,5.9,24.3,6.8,23.9C6.8,23.8,6.7,23.9,6.8,23.9z M5.4,18.2c-0.1-1-0.4-1.4-1-2.2
		c-0.2,0.5-0.5,1-0.2,1.5c0.2,0.3,0.4,0.5,0.7,0.7C5,18,5.2,18,5.4,18.2C5.4,17.9,5.2,17.9,5.4,18.2z M29.1,13.5
		c-0.2,0-0.2,0.5-0.2,0.7c-0.2,0.5-0.8,0.9-1.3,0.9c-0.1,0-0.4,0.2-0.3,0.3c0.2,0.3,1.3,0.1,1.6,0.1C28.8,14.8,29.2,14.2,29.1,13.5
		C29.1,13.5,29.1,13.6,29.1,13.5z M4.6,20.1c0.6-0.8,0.7-0.5,0.5-1.8C4.4,18.8,4.6,19.2,4.6,20.1C4.7,20,4.6,19.6,4.6,20.1z
		 M47.5,19.2c0,0.3,0,0.5,0,0.8C47.6,19.7,47.7,19.4,47.5,19.2z"/>
	<path d="M24.4,24c-0.2,0.3-0.2,0.4,0,0.4c0.5-1.5,0.4-3,1-4.4c0.1-0.3,0.4-1.7,0.8-1.7c0.7,0,1.6-0.3,1.8,0.5
		c-0.5,0-0.2,0.9-0.1,1.4c0.2,0.9,0.3,1.7,0.4,2.6c0.1,0.7,0.3,1.2,0.6,1.8c0.2,0.4-1.1,0.3-1.3,0.2c-0.3-0.4-0.3-1.2-0.4-1.7
		c-0.3-1.2-0.1-0.8-1.1-0.8c-0.4-0.3-0.6-0.2-0.6,0.4c-0.2,0.5-0.3,1-0.5,1.5c-0.1,0.3-0.4,1.8-0.6,0.6c-0.4,0-0.7,0.6-1.4,0.1
		c-0.4-0.4,0-2.1,0.1-2.6c-1.3,0.4-0.5,1.2-1.1,2.2c-0.3,0.6-1.4,1.1-1.2,0c0.2-1.1-0.1-2.3,0.1-3.5c0.1-0.9,0.5-1.7-0.3-2.2
		c0.9-0.2,1.8-0.5,2.3,0.3c-0.6-0.1-0.8,0.1-0.5,0.7c0.1,0.6,0.1,1.2,0,1.8c0.3,0,0.8,0.2,0.8-0.2c0-0.6,0-1.2,0.1-1.9
		c0-1.1,0.8-1.3,1.7-0.8c-0.9,0.6-0.3,1.9-0.5,2.9C24.4,22,23.7,24,24.4,24C24.4,24.1,24.1,24,24.4,24z M26.4,19.2
		c-0.2,0-0.4,1-0.5,1.2c-0.2,1.1-0.2,1.1,0.9,1.1C26.6,20.7,26.5,19.9,26.4,19.2C26.3,19.2,26.5,19.9,26.4,19.2z"/>
	<path d="M28.9,24.2c0.3-1.4,0.1-2.9,0-4.3c-0.1-1.2-0.3-2.6,1.4-2c1,0.4,2.1,0.6,3.1,0.6c0.5,0,1.3-0.1,1.8,0.1
		c0.4,0.1,1.1,1,0.6,1.4c-0.6-0.6-0.9-0.6-1.8-0.5c-0.6,0-0.1,1.5-0.1,1.8c0.4-0.1,0.9-0.5,1.1,0c0.2,1.1-1.1,0.4-1.1,0.8
		c0,0.3-0.3,1,0,1.1c0.7,0.1,1.3-0.9,1.6-0.8c0.3,0.1,0.2,1.6-0.2,1.7c-0.6,0.1-1.7,0.2-2.3,0c-0.8-0.3-0.4-0.9-0.2-1.4
		c0.2-0.6,0-1.5-0.1-2.1c-0.5,0.5-0.8,1-1.5,1.2c-0.7,0.2-1.1-0.2-1,0.7c0.1,0.4,0.6,1.4,0.5,1.7C30.4,24.7,29.3,24.3,28.9,24.2
		C28.9,24,29,24.2,28.9,24.2z M30.2,21c0.6-0.2,1.7-1.5,0.5-1.9C29.7,18.9,29.7,20.5,30.2,21C30.3,21,30,20.8,30.2,21z"/>
	<path d="M19.4,20.2c-0.3-0.5-0.6-0.7-1-0.1c-0.2,0.3,0.8,1,1,1.1c0.8,0.9,1.4,2.3,0.2,3.2c-0.8,0.6-1.6,0.7-2.6,0.8
		c-0.3,0-0.3,0.8-0.7,0.4c-0.5-0.6-0.4-0.8-0.2-1.6c0.5-1.6,1.7,0.5,2.5-0.7c0.7-1.1-1.6-1.9-1.8-2.9c-0.1-0.5,0-1,0.5-1.3
		c0.6-0.4,1.3-0.3,1.8-0.6c0.1,0,0.3-0.6,0.4-0.2C19.8,19,19.7,19.5,19.4,20.2C19.2,20,19.5,20,19.4,20.2z"/>
	<path d="M25.9,27.5c1.2-0.2,2.5-0.3,3.6-0.8c0.5-0.2,0.9-0.5,1.4-0.9c0.7-0.6,0.8-0.5,0.4-1.3c0.3-0.2,1.6,1.2,2,1.5
		c-0.3,0-1.2-0.5-1.4-0.3c-0.6,0.5-1.2,1-1.9,1.5C29.3,27.6,26.4,28.5,25.9,27.5C26.2,27.5,26,27.8,25.9,27.5z"/>
	<path d="M28.7,10.7c-0.4-0.5-1.6-0.3-1.6-0.4C27.6,9.9,29.2,9.7,28.7,10.7C28.5,10.4,28.8,10.6,28.7,10.7z"/>
	<path d="M28,13.3c-0.1,0.1-0.2,0.2-0.2,0.3c0.3,0.1,0.8,0.4,0.1,0.5C27.2,14.2,27,13.2,28,13.3C27.9,13.4,27.8,13.3,28,13.3z"/>
	<path d="M24,13.6c-0.1,0.1-0.2,0.2-0.2,0.3c0.3,0.1,0.8,0.5,0.1,0.5C23.1,14.4,23.2,13.5,24,13.6C23.9,13.7,23.9,13.6,24,13.6z"/>
	<path d="M23.9,10.2c0,0.1-0.1,0.1-0.1,0.2c0.2,0,0.3,0.1,0.3,0.3c-0.6,0.1-1,0.3-1.5,0.5C22.8,10.7,23.4,10.3,23.9,10.2
		C23.9,10.3,23.4,10.3,23.9,10.2z"/>
	<path d="M46,21.2c-0.3,0.1-0.4,0.3-0.3,0.6c0.5-0.7,1.9-0.7,1.2,0.4C46,23.6,44.8,21.4,46,21.2C45.7,21.4,45.5,21.3,46,21.2z
		 M46.5,21.5c-0.5,0-0.6,0.7-0.1,0.7C46.8,22.2,46.8,21.5,46.5,21.5z"/>
	<path d="M48.6,21c-0.3,0.1-0.9,0.2-0.7,0.6c0.7-1.4,1.9,0.6,0.6,0.7C47.3,22.6,47.4,21,48.6,21C48.4,21.1,48.6,21,48.6,21z
		 M48.6,21.4c-0.5,0-0.5,0.6-0.1,0.6C49.1,22,48.9,21.5,48.6,21.4C48.3,21.4,48.7,21.5,48.6,21.4z"/>
	<path d="M49.5,21.7c0.1,0.2,0.2,0.2,0.3,0.1c-0.5-0.5,0-0.9,0.6-0.9c-0.2,0.1-0.5,0.1-0.6,0.4c0.3-0.2,0.6-0.3,0.9-0.2
		c-0.1-0.2,0-0.3,0.1-0.3C51.2,21.9,49.4,22.2,49.5,21.7C49.6,21.7,49.5,21.9,49.5,21.7z M50.6,21.3c-0.2-0.1-0.4,0-0.6,0.1
		C49.9,21.6,50.6,21.7,50.6,21.3C50.4,21.3,50.6,21.5,50.6,21.3z"/>
	<path d="M49.9,16.5c-0.1,0.4,0.8,0.1,1,0.1c0,0.6-0.7,0.7-1.1,0.4c-0.5-0.3-0.3-1.4,0.5-0.7C50.2,16.4,50,16.4,49.9,16.5
		C49.9,16.7,49.9,16.5,49.9,16.5z"/>
	<path d="M52.1,17.5c0,0.5-0.7,0.9-0.8,0.3C51.3,17.2,52.1,16.7,52.1,17.5C52.1,17.8,52.1,17.2,52.1,17.5z"/>
	<path d="M45.9,15.7c-0.2,0.1-0.3,0.3-0.2,0.6c0.3-0.4,0.6-0.4,1-0.7c0,0.5,0,1.1-0.6,1C45.4,16.6,45.1,15.8,45.9,15.7
		C45.7,15.9,45.5,15.7,45.9,15.7z M46,16.4C47.4,16.4,45.2,15.6,46,16.4C46.2,16.4,45.9,16.4,46,16.4z"/>
	<path d="M48.5,16.1c-0.7,0.9-1.5-0.2-0.8-0.3c-0.1,0.1-0.1,0.2-0.1,0.3C47.9,15.9,48.2,15.6,48.5,16.1C48.4,16.2,48.4,16,48.5,16.1
		z M48,16c-0.2,0-0.3,0.1-0.2,0.2C48,16.3,48,16.2,48,16C47.9,16,48.1,16.2,48,16z"/>
</g>
</svg>
